<svg width="175" height="168" viewBox="0 0 175 168" fill="none" xmlns="http://www.w3.org/2000/svg">
<g id="Group 46">
<path id="Vector" d="M51.5111 18.4295L40.3357 6.55566C39.5922 5.76708 38.2403 6.33035 38.3079 7.41184L40.4934 51.8429C40.5159 52.3837 40.899 52.8343 41.4397 52.947L86.5467 61.9819C87.6282 62.2072 88.3717 60.9455 87.6958 60.0893L78.1652 48.238C77.8272 47.8099 77.8047 47.2016 78.1652 46.7735C81.9504 42.087 103.648 16.1764 120.433 12.4813C121.605 12.2335 121.695 10.6112 120.546 10.2507L91.098 0.967975C84.6316 -1.05981 77.6019 0.134328 72.172 4.21244L53.0657 18.5647C52.5925 18.9252 51.9166 18.8576 51.5111 18.4295Z" fill="#5B9739"/>
<path id="Vector_2" d="M105.383 29.4696C105.135 28.3881 105.473 27.2841 106.306 26.5406C110.61 22.7328 124.534 11.7152 135.912 17.1677C147.065 22.5075 148.462 41.9518 148.597 48.8688C148.62 50.3108 147.628 51.55 146.209 51.8429L115.093 58.5346C113.471 58.8725 111.872 57.8586 111.511 56.2589L105.405 29.4696H105.383Z" fill="#5B9739"/>
<path id="Vector_3" d="M158.06 93.0073L174.057 89.7628C175.139 89.5375 175.341 88.118 174.395 87.5773L135.484 66.0377C135.011 65.7673 134.425 65.88 134.065 66.263L102.634 99.8567C101.89 100.668 102.544 101.952 103.648 101.817L118.744 99.9468C119.284 99.8792 119.803 100.172 119.983 100.713C121.966 106.413 132.6 138.475 126.877 154.697C126.472 155.846 127.801 156.747 128.725 155.959L152.089 135.839C157.227 131.423 159.908 124.799 159.299 118.062L157.159 94.2465C157.114 93.6607 157.519 93.0974 158.105 92.9847L158.06 93.0073Z" fill="#5B9739"/>
<path id="Vector_4" d="M120.298 132.999C121.357 133.36 122.101 134.239 122.303 135.343C123.272 140.998 125.323 158.64 114.688 165.444C104.279 172.113 87.02 163.056 81.0492 159.541C79.81 158.797 79.2918 157.31 79.7875 155.936L90.4897 125.947C91.053 124.393 92.7428 123.559 94.32 124.1L120.298 132.999Z" fill="#5B9739"/>
<path id="Vector_5" d="M42.4311 145.459L37.5419 161.028C37.2039 162.064 38.353 162.966 39.2767 162.38L76.9485 138.745C77.3992 138.452 77.6019 137.889 77.4442 137.393L63.2722 93.6378C62.9343 92.6014 61.4698 92.5338 61.0642 93.5702L55.3864 107.697C55.1836 108.215 54.6654 108.508 54.1247 108.418C48.199 107.404 14.9658 101.163 3.5426 88.3205C2.73148 87.4192 1.2895 88.1402 1.53734 89.3344L7.82348 119.503C9.19787 126.127 13.7041 131.693 19.9001 134.419L41.7777 144.085C42.3184 144.333 42.6113 144.941 42.4311 145.504V145.459Z" fill="#5B9739"/>
<path id="Vector_6" d="M25.6905 93.052C24.8568 93.7955 23.7303 94.0434 22.6713 93.6603C17.2639 91.7903 0.838808 85.031 0.0276929 72.4362C-0.760892 60.1117 15.5065 49.387 21.4772 45.8721C22.7164 45.1511 24.2936 45.4215 25.2399 46.503L46.2838 70.3858C47.3878 71.625 47.2752 73.5176 46.036 74.6217L25.668 93.052H25.6905Z" fill="#5B9739"/>
</g>
</svg>
