<svg width="72" height="70" viewBox="0 0 72 70" fill="none" xmlns="http://www.w3.org/2000/svg">
<g id="Layer_1" clip-path="url(#clip0_1_545)">
<path id="Vector" d="M0 34.597C0.198439 33.4872 0.284184 32.3406 0.617366 31.2725C1.32293 29.0039 2.13138 26.7647 2.94964 24.5329C3.78259 22.2545 4.67679 20.0007 5.54649 17.7345C5.62734 17.5239 5.71799 17.3181 5.82333 17.0657C6.59259 17.3597 7.3202 17.6366 8.10905 17.9379C8.01841 18.2074 7.94981 18.4426 7.86407 18.6704C6.4358 22.453 4.95363 26.2135 3.5915 30.0182C1.95499 34.5896 2.19753 39.1464 3.98838 43.637C4.09862 43.9138 4.20642 44.1931 4.33871 44.5336C3.5817 44.8497 2.84674 45.1583 2.05789 45.4891C1.22003 43.5439 0.578168 41.606 0.281734 39.5628C0.18864 38.9283 0.0930949 38.2914 0 37.6544C0 36.6353 0 35.6161 0 34.597Z" fill="black"/>
<path id="Vector_2" d="M71.1514 63.7847H68.6942V52.5276H71.1514V63.7847Z" fill="black"/>
<path id="Vector_3" d="M71.1515 68.7873H68.6501C68.6501 68.3439 68.6501 67.9397 68.6501 67.533C68.6501 67.1263 68.6501 66.7588 68.6501 66.2836H71.1515V68.7849V68.7873Z" fill="black"/>
<path id="Vector_4" d="M27.3969 50.5407V53.7059C28.4723 54.1445 28.6291 54.3772 28.6291 55.5286C28.6291 58.5395 28.6291 61.5504 28.6291 64.5613C28.6291 65.6833 28.4552 65.9357 27.3748 66.3472V70.0024H24.898V66.3252H12.4037V69.9902H9.89256V66.3276C8.75583 66.1243 8.59413 65.3354 8.60393 64.3628C8.63578 61.4696 8.61618 58.5738 8.61618 55.6781C8.61618 54.2253 8.84892 53.946 10.3115 53.7084C9.94646 52.824 9.58388 51.9543 9.2262 51.0797C8.234 48.6641 7.18791 46.2681 6.26431 43.8256C4.28972 38.5952 4.44406 33.3623 6.4211 28.1612C8.77052 21.9826 11.1297 15.8065 13.489 9.63041C14.5449 6.86206 16.7252 5.76697 19.5744 6.51908C19.8145 6.58278 20.1869 6.44314 20.3927 6.27165C22.3771 4.61309 24.5281 3.23626 26.9044 2.20977C32.2696 -0.112703 37.7965 -0.602676 43.4753 0.732501C47.4833 1.6757 51.0675 3.49105 54.2008 6.1663C54.6296 6.53133 54.9823 6.62443 55.5458 6.45294C57.6772 5.79882 60.0144 6.77877 60.889 8.82685C62.06 11.5658 63.0767 14.3733 64.1375 17.1588C65.6686 21.1766 67.2439 25.1797 68.682 29.2293C70.5439 34.4745 70.2376 39.6878 68.1332 44.8129C66.923 47.7626 65.6931 50.7024 64.4437 53.7157C64.6373 53.7427 64.7818 53.7623 64.9263 53.7819C65.7078 53.897 66.1341 54.3282 66.1366 55.1342C66.1513 58.3999 66.1464 61.6655 66.139 64.9312C66.139 65.7274 65.6613 66.1463 64.8969 66.3203V69.9853H62.425V66.3423H49.9087V69.9975H47.4294V66.3276C46.3049 66.1243 46.1163 65.3722 46.1261 64.4143C46.1555 61.4745 46.1555 58.5322 46.1261 55.5899C46.1163 54.6491 46.3417 53.9411 47.3706 53.7427V50.5481C40.7192 53.1474 34.085 53.1645 27.3944 50.5407H27.3969ZM18.8321 20.5887C22.3183 20.988 23.6265 22.4628 23.6265 25.8804C23.6265 28.5899 23.6486 31.2995 23.6167 34.009C23.602 35.3564 23.8421 36.6206 24.4252 37.8382C25.8338 40.7804 26.7672 43.8673 27.1225 47.1182C27.169 47.5372 27.3258 47.7993 27.7619 47.983C34.1928 50.7146 40.6114 50.7122 47.035 47.9659C47.4294 47.7969 47.5984 47.5641 47.6425 47.155C47.9978 43.8575 48.9557 40.7314 50.3839 37.7451C50.9352 36.5936 51.1605 35.3932 51.1483 34.1168C51.1213 31.1525 51.1336 28.1881 51.1434 25.2238C51.1483 23.3129 51.9666 21.8577 53.7182 21.0541C54.3674 20.7577 55.122 20.6965 55.8814 20.5152C55.8153 20.3388 55.7442 20.1256 55.6585 19.9198C54.6835 17.6194 53.6962 15.3263 52.7407 13.021C52.5129 12.4723 52.2507 11.872 52.2679 11.3037C52.2948 10.2943 52.5251 9.28988 52.6868 8.17274C43.0539 -0.291542 29.0946 1.49441 21.8945 8.41773C22.6196 9.66471 22.7887 10.9803 22.2962 12.3473C22.0463 13.0431 21.7401 13.7192 21.4535 14.4003C20.5911 16.441 19.7263 18.4793 18.8321 20.5911V20.5887ZM49.9454 53.7378C50.0459 53.75 50.1341 53.7721 50.2198 53.7721C53.9019 53.7721 57.5841 53.7647 61.2662 53.7868C61.6974 53.7868 61.8126 53.5614 61.94 53.2478C63.2653 50.0434 64.6152 46.8488 65.9161 43.6345C67.6824 39.2689 68.0156 34.7881 66.411 30.3416C63.9856 23.624 61.3814 16.9702 58.8433 10.2943C58.3436 8.9763 57.1382 8.42753 55.9574 8.9273C54.8059 9.41237 54.4189 10.5736 54.9799 11.9039C56.3567 15.1622 57.7286 18.423 59.1226 21.6739C59.6518 22.9062 59.9041 24.1777 59.8992 25.5178C59.887 30.0794 59.8943 34.6435 59.8943 39.2052V39.9769H57.393C57.393 39.6854 57.393 39.4355 57.393 39.1831C57.393 34.5749 57.3881 29.9643 57.3979 25.3561C57.3979 24.6187 57.2313 23.967 56.6139 23.5236C56.0284 23.1022 55.367 23.0263 54.708 23.3448C53.9656 23.7049 53.6423 24.337 53.6423 25.1479C53.6423 28.1808 53.6276 31.2162 53.6472 34.2491C53.657 35.8048 53.3875 37.2869 52.6917 38.6834C50.3423 43.4116 49.6147 48.4412 49.943 53.7378H49.9454ZM24.8784 53.7745C24.8784 52.8534 24.8686 52.0425 24.8784 51.2316C24.9347 46.9492 24.0822 42.8604 22.2129 39.0018C21.4388 37.4045 21.0909 35.7435 21.1129 33.9698C21.1521 31.0741 21.1301 28.1783 21.1203 25.2826C21.1154 23.9303 20.2212 23.0606 19.0061 23.1953C17.9992 23.3056 17.3769 24.1091 17.3745 25.3365C17.3696 29.9692 17.3745 34.6019 17.3745 39.2346C17.3745 39.4796 17.3745 39.7246 17.3745 39.9597H14.8731C14.8731 39.6511 14.8731 39.3963 14.8731 39.1439C14.8731 34.7195 14.8903 30.295 14.8633 25.8706C14.8535 24.2904 15.1475 22.8082 15.7796 21.3555C17.1687 18.178 18.4965 14.9736 19.8537 11.7814C20.1869 10.9974 20.1869 10.2429 19.6406 9.55691C19.1408 8.9273 18.4622 8.65781 17.6709 8.77296C16.7252 8.9126 16.1936 9.53732 15.8653 10.4021C13.4865 16.6713 11.093 22.9332 8.71173 29.2024C6.97477 33.7787 6.85473 38.3894 8.61863 42.9682C9.96606 46.4617 11.4678 49.8964 12.874 53.3679C13.0406 53.7745 13.2954 53.777 13.6311 53.7745C17.1736 53.7696 20.7185 53.7721 24.261 53.7721C24.4399 53.7721 24.6187 53.7721 24.8735 53.7721L24.8784 53.7745ZM26.0788 63.7504V56.3322H11.1567V63.7504H26.0788ZM63.6157 56.3273H48.696V63.743H63.6157V56.3273Z" fill="black"/>
<path id="Vector_5" d="M7.22464 13.3101C8.00615 13.6066 8.73131 13.8834 9.54712 14.1921C9.30703 14.8339 9.07919 15.444 8.82441 16.1226C8.0429 15.8261 7.30059 15.5419 6.48969 15.2357C6.73957 14.5816 6.97231 13.9691 7.22464 13.3101Z" fill="black"/>
<path id="Vector_6" d="M26.0788 63.7503H11.1567V56.3322H26.0788V63.7503Z" fill="#22B573"/>
<path id="Vector_7" d="M63.6157 56.3273V63.743H48.696V56.3273H63.6157Z" fill="#22B573"/>
<path id="Vector_8" d="M37.113 36.4295V39.901C36.329 39.9696 35.5598 40.0357 34.6607 40.1141C34.6313 39.2787 34.5161 38.4751 34.597 37.6936C34.7195 36.5153 34.4353 35.8587 33.2079 35.3393C30.6674 34.2614 29.5307 31.9904 29.0603 29.3959C28.0559 23.8495 30.7825 19.3662 35.2266 16.8257C39.1586 14.5792 43.3504 14.611 47.596 15.8286C48.5735 16.1079 48.9214 16.9261 48.3799 17.7713C47.2579 19.523 47.0252 21.4633 46.9296 23.4722C46.8341 25.4786 46.8169 27.5169 46.4225 29.4719C45.5185 33.9674 42.2553 36.6549 37.5417 36.4271C37.429 36.4222 37.3139 36.4271 37.113 36.4271V36.4295ZM45.516 17.8179C44.8227 17.7223 44.2323 17.6096 43.637 17.5606C40.3762 17.2887 37.3825 17.9526 34.8273 20.1183C31.7037 22.7666 30.5964 26.4365 31.8507 30.1554C32.3358 31.5959 33.1663 32.7694 34.7611 33.3231C35.1997 29.3861 36.138 25.6428 37.75 22.0194C38.5192 22.3599 39.2468 22.6809 40.0136 23.0214C38.5217 26.5345 37.5638 30.104 37.2404 33.8743C38.6711 34.0041 39.9965 33.867 41.219 33.1344C43.1397 31.9855 43.9285 30.1432 44.1711 28.0534C44.3499 26.5198 44.3573 24.9617 44.394 23.4134C44.4406 21.5245 44.8007 19.7018 45.5111 17.8179H45.516Z" fill="#22B573"/>
<path id="Vector_9" d="M46.6797 7.13403C46.3171 7.87879 45.9766 8.5819 45.5895 9.37566C41.0328 7.27122 36.3511 6.93069 31.5273 8.41286C31.3068 7.74894 31.1084 7.16343 30.9173 6.57546C30.8683 6.42602 30.8438 6.26923 30.7948 6.04629C36.2457 4.35098 41.5056 4.73071 46.6822 7.13158L46.6797 7.13403Z" fill="black"/>
<path id="Vector_10" d="M26.8211 10.7231C26.3434 10.0224 25.9024 9.37564 25.4124 8.65538C26.2944 8.14091 27.1396 7.64603 28.0656 7.10461C28.4503 7.89347 28.8006 8.60883 29.1632 9.35114C28.3817 9.80926 27.632 10.2478 26.8211 10.7231Z" fill="black"/>
</g>
<defs>
<clipPath id="clip0_1_545">
<rect width="71.1514" height="70" fill="white"/>
</clipPath>
</defs>
</svg>
