<svg width="184" height="218" viewBox="0 0 184 218" fill="none" xmlns="http://www.w3.org/2000/svg">
<g id="Group 53" filter="url(#filter0_d_1_438)">
<path id="&#38;lt;Path&#38;gt;" d="M113.871 9.24497C130.015 12.5787 144.645 21.5881 154.9 34.5067C181.21 67.6733 167.07 107.136 152.976 126.75C136.394 149.828 95.7391 161.91 81.1258 164.437C66.5247 166.963 64.8172 175.512 64.8172 175.512L46.6677 164.334L28.5181 153.156C28.5181 153.156 35.384 147.781 31.0665 133.608C26.7483 119.423 19.2354 77.6747 32.375 52.4846C43.5428 31.0707 72.4143 0.672838 113.871 9.24497Z" fill="#F3FFB1"/>
<path id="&#38;lt;Path&#38;gt;_2" d="M64.8172 175.512L52.3089 195.819C46.9882 204.458 35.7121 207.19 27.1352 201.902L21.8884 198.672C13.3115 193.384 10.6648 182.103 15.9848 173.452L28.4931 153.145L64.8172 175.512Z" fill="#B1D000"/>
<path id="&#38;lt;Path&#38;gt;_3" d="M20.1721 164.053L60.3969 185.922C61.3176 186.423 62.4698 186.082 62.9704 185.161L63.8245 183.59C64.3251 182.67 63.9845 181.517 63.0637 181.017L22.8389 159.148C21.9182 158.647 20.766 158.988 20.2654 159.909L19.4113 161.479C18.9107 162.4 19.2513 163.552 20.1721 164.053Z" fill="#5B9739"/>
<path id="&#38;lt;Path&#38;gt;_4" d="M14.8693 174.224L53.4484 195.198C54.3691 195.699 55.5213 195.358 56.0219 194.437L56.876 192.866C57.3766 191.946 57.036 190.794 56.1152 190.293L17.5362 169.319C16.6154 168.818 15.4632 169.159 14.9627 170.079L14.1086 171.65C13.608 172.571 13.9486 173.723 14.8693 174.224Z" fill="#5B9739"/>
<path id="&#38;lt;Path&#38;gt;_5" d="M11.1101 184.675L46.761 204.057C47.6817 204.558 48.8339 204.217 49.3345 203.297L50.1886 201.726C50.6891 200.805 50.3485 199.653 49.4278 199.152L13.7769 179.77C12.8562 179.269 11.704 179.61 11.2034 180.531L10.3493 182.102C9.84873 183.022 10.1893 184.174 11.1101 184.675Z" fill="#5B9739"/>
<path id="Vector" d="M57.6515 121.769C53.295 110.632 41.5901 71.5033 79.656 45.2259C81.088 44.2451 83.0521 44.7333 83.8088 46.2996C89.0966 57.0931 104.346 96.4273 61.7827 123.112C60.2758 124.06 58.2794 123.428 57.6394 121.77L57.6515 121.769Z" fill="#B1D000"/>
<path id="Vector_2" d="M46.6676 164.334C46.6676 164.334 56.3387 140.968 59.829 121.271L81.5277 48.4481" stroke="#5B9739" stroke-width="0.5" stroke-miterlimit="10" stroke-linecap="round"/>
<path id="Vector_3" d="M84.0492 62.0871C84.0492 62.0871 75.2835 72.9763 72.4923 78.6739" stroke="#5B9739" stroke-width="0.5" stroke-miterlimit="10" stroke-linecap="round"/>
<path id="Vector_4" d="M65.214 68.2342C65.214 68.2342 70.9186 79.9549 68.5924 91.6328" stroke="#5B9739" stroke-width="0.5" stroke-miterlimit="10" stroke-linecap="round"/>
<path id="Vector_5" d="M84.676 89.037C84.676 89.037 71.204 93.0354 65.2859 103.207" stroke="#5B9739" stroke-width="0.5" stroke-miterlimit="10" stroke-linecap="round"/>
<path id="Vector_6" d="M58.7148 89.0364C58.7148 89.0364 64.4193 100.757 62.0932 112.435" stroke="#5B9739" stroke-width="0.5" stroke-miterlimit="10" stroke-linecap="round"/>
<path id="Vector_7" d="M65.147 129.529C71.1109 123.266 93.2071 103.622 122.068 120.567C123.15 121.201 123.425 122.648 122.639 123.617C117.178 130.389 96.0413 152.403 65.539 132.65C64.465 131.954 64.2602 130.455 65.1463 129.517L65.147 129.529Z" fill="#B1D000"/>
<path id="Vector_8" d="M120.521 122.772L66.1312 130.802C66.1312 130.802 60.329 131.184 52.1191 149.913" stroke="#5B9739" stroke-width="0.5" stroke-miterlimit="10" stroke-linecap="round"/>
<path id="Vector_9" d="M112.352 128.597C112.352 128.597 102.533 126.18 97.9474 126.093" stroke="#5B9739" stroke-width="0.5" stroke-miterlimit="10" stroke-linecap="round"/>
<path id="Vector_10" d="M102.561 118.114C102.561 118.114 96.6196 125.435 88.2538 127.482" stroke="#5B9739" stroke-width="0.5" stroke-miterlimit="10" stroke-linecap="round"/>
<path id="Vector_11" d="M94.873 137.24C94.873 137.24 88.1285 129.621 79.656 128.86" stroke="#5B9739" stroke-width="0.5" stroke-miterlimit="10" stroke-linecap="round"/>
<path id="Vector_12" d="M86.9382 120.221C86.9382 120.221 80.9963 127.543 72.6305 129.59" stroke="#5B9739" stroke-width="0.5" stroke-miterlimit="10" stroke-linecap="round"/>
<path id="Vector_13" d="M146.624 113.896C143.212 118.946 138.829 124.049 133.275 129.132" stroke="#5B9739" stroke-width="0.5" stroke-miterlimit="10" stroke-linecap="round"/>
<path id="Vector_14" d="M156.196 91.3765C155.107 97.0164 153.069 102.892 149.721 108.876" stroke="#5B9739" stroke-width="0.5" stroke-miterlimit="10" stroke-linecap="round"/>
<path id="Vector_15" d="M146.543 45.0929C146.543 45.0929 157.025 56.6101 157.185 80.6375" stroke="#5B9739" stroke-width="0.5" stroke-miterlimit="10" stroke-linecap="round"/>
<path id="Vector_16" d="M143.458 63.0748C145.186 68.9973 145.918 75.8278 144.833 83.5142" stroke="#5B9739" stroke-width="0.5" stroke-miterlimit="10" stroke-linecap="round"/>
<path id="Vector_17" d="M124.518 35.8595C124.518 35.8595 132.322 41.2752 138.368 51.4541" stroke="#5B9739" stroke-width="0.5" stroke-miterlimit="10" stroke-linecap="round"/>
</g>
<defs>
<filter id="filter0_d_1_438" x="4.11849" y="0.75946" width="179.535" height="216.839" filterUnits="userSpaceOnUse" color-interpolation-filters="sRGB">
<feFlood flood-opacity="0" result="BackgroundImageFix"/>
<feColorMatrix in="SourceAlpha" type="matrix" values="0 0 0 0 0 0 0 0 0 0 0 0 0 0 0 0 0 0 127 0" result="hardAlpha"/>
<feOffset dx="4" dy="3"/>
<feGaussianBlur stdDeviation="5"/>
<feComposite in2="hardAlpha" operator="out"/>
<feColorMatrix type="matrix" values="0 0 0 0 0 0 0 0 0 0 0 0 0 0 0 0 0 0 0.25 0"/>
<feBlend mode="normal" in2="BackgroundImageFix" result="effect1_dropShadow_1_438"/>
<feBlend mode="normal" in="SourceGraphic" in2="effect1_dropShadow_1_438" result="shape"/>
</filter>
</defs>
</svg>
