<svg width="71" height="70" viewBox="0 0 71 70" fill="none" xmlns="http://www.w3.org/2000/svg">
<g id="Layer_1" clip-path="url(#clip0_1_572)">
<path id="Vector" d="M0 60.9692V27.6147C0.407253 26.9627 1.01539 26.8093 1.74954 26.8129C7.50039 26.8294 13.2494 26.8221 19.0003 26.8221C19.2669 26.8221 19.5335 26.8221 19.8659 26.8221V26.013C19.8659 23.7138 19.8787 21.4127 19.8568 19.1135C19.8513 18.4743 20.054 17.9812 20.5106 17.5374C21.7195 16.3613 22.9212 15.1761 24.0827 13.9543C24.3292 13.6932 24.5027 13.2585 24.5137 12.8988C24.5612 11.3976 24.5082 9.89277 24.5447 8.38977C24.5594 7.75789 24.4169 7.28489 23.9238 6.83929C23.1641 6.1508 23.197 5.53718 23.9384 4.79024C25.2387 3.479 26.5463 2.17506 27.863 0.880251C28.1863 0.560658 28.5534 0.290373 28.9003 0C42.6428 0 56.3853 0 70.1278 0V14.3543C69.7516 14.9898 69.1928 15.1816 68.4641 15.1798C61.6888 15.1615 54.9116 15.1688 48.1362 15.1688H47.4148L47.3162 15.3386C48.0997 16.0892 48.9306 16.796 49.6428 17.6068C49.9697 17.9812 50.2071 18.5492 50.2364 19.0459C50.3167 20.4083 50.2638 21.7762 50.2638 23.144C50.2638 24.3457 50.2638 25.5455 50.2638 26.8202H51.1312C56.8803 26.8202 62.6311 26.8276 68.3801 26.8111C69.1143 26.8093 69.7224 26.9627 70.1297 27.6128V60.9674C69.8886 61.2669 69.6731 61.592 69.4028 61.8622C66.9246 64.3478 64.4318 66.8187 61.9572 69.3115C61.4934 69.779 60.993 69.9982 60.3227 69.9982C43.4829 69.9872 26.6449 69.9872 9.80511 69.9982C9.13671 69.9982 8.63632 69.779 8.17062 69.3115C5.73076 66.8516 3.26898 64.4135 0.823637 61.959C0.522306 61.6559 0.273937 61.2998 0 60.9674L0 60.9692ZM2.37229 29.1925C2.35768 29.3825 2.33577 29.5359 2.33394 29.6893C2.33394 39.6916 2.32846 49.6921 2.34855 59.6945C2.34855 59.9867 2.53118 60.3465 2.74302 60.562C4.95278 62.8009 7.17897 65.0271 9.42708 67.2278C9.66815 67.4633 10.0864 67.6441 10.4224 67.6441C26.8586 67.6642 43.293 67.6642 59.7292 67.6441C60.047 67.6441 60.4414 67.4798 60.6697 67.257C62.9178 65.0545 65.1477 62.832 67.3501 60.5857C67.5985 60.3319 67.7756 59.8863 67.7775 59.5301C67.7994 49.6648 67.7957 39.7994 67.7957 29.9358C67.7957 29.6948 67.7957 29.4537 67.7957 29.1907H2.37229V29.1925ZM67.7738 2.37595H50.3039V12.7892H67.7738V2.37595ZM47.875 12.8221V2.32846H47.0021C41.5964 2.32846 36.1925 2.34307 30.7869 2.31203C30.0217 2.30655 29.4665 2.48917 28.9423 3.06444C28.0767 4.01409 27.1216 4.88338 26.2596 5.73076C27.7115 7.17532 29.0775 8.53587 30.4326 9.88364C30.9823 9.34307 31.5794 8.75867 32.2972 8.05557C31.7621 7.57344 31.1685 7.15888 30.7467 6.61101C30.5166 6.31151 30.4344 5.73624 30.5549 5.37647C30.6554 5.07514 31.1448 4.73728 31.4717 4.7245C31.8406 4.71171 32.2972 4.96739 32.5857 5.24315C33.8403 6.43569 35.0347 7.69215 36.2875 8.88651C36.534 9.1221 36.9431 9.29924 37.281 9.30472C39.5382 9.34125 41.7955 9.31751 44.0545 9.32664C45.1558 9.33029 45.5794 9.76494 45.5904 10.8643C45.5977 11.5127 45.5904 12.161 45.5904 12.8239H47.8696L47.875 12.8221ZM26.9097 19.8531V26.7764H43.209V19.8531H26.9097ZM24.4827 26.7892V16.7741C23.754 17.5411 23.1385 18.1456 22.5815 18.7994C22.3825 19.0313 22.2199 19.3801 22.2163 19.6796C22.1834 21.6374 22.1998 23.5951 22.1998 25.5528C22.1998 25.9546 22.1998 26.3582 22.1998 26.7892H24.4845H24.4827ZM47.9298 26.7892C47.9298 24.2799 47.9298 21.8474 47.9262 19.4148C47.9262 19.3071 47.9097 19.1665 47.8422 19.0989C47.1409 18.3775 46.4286 17.6671 45.6361 16.8727V26.791H47.928L47.9298 26.7892ZM29.209 17.4607C29.209 15.7422 29.209 14.0639 29.2053 12.3874C29.2053 12.2797 29.1889 12.1391 29.1213 12.0697C28.4219 11.3501 27.7096 10.6415 26.9097 9.83799V17.4607H29.209ZM31.5521 17.448H33.833V9.79598C33.0331 10.6288 32.372 11.3081 31.7274 12.0039C31.6306 12.108 31.5612 12.2833 31.5612 12.4258C31.5502 14.0804 31.5539 15.7368 31.5539 17.448H31.5521ZM36.24 17.4644H38.5338V11.6588C37.8617 11.6588 37.2299 11.6387 36.6016 11.6752C36.4738 11.6825 36.2565 11.9071 36.2546 12.0331C36.2309 13.8247 36.2382 15.6181 36.2382 17.4626L36.24 17.4644ZM40.9645 11.7026V17.4425H43.2181V11.7026H40.9645Z" fill="black"/>
<path id="Vector_2" d="M67.7738 2.37592V12.7892H50.304V2.37592H67.7738Z" fill="#22B573"/>
<path id="Vector_3" d="M47.875 12.822H45.5958C45.5958 12.1591 45.6013 11.5108 45.5958 10.8625C45.583 9.76308 45.1593 9.33026 44.0599 9.32478C41.8027 9.31565 39.5436 9.33939 37.2864 9.30287C36.9486 9.29739 36.5395 9.11842 36.2929 8.88466C35.0401 7.69029 33.8476 6.43384 32.5911 5.2413C32.3026 4.96736 31.846 4.70986 31.4771 4.72264C31.1502 4.7336 30.6608 5.07328 30.5603 5.37461C30.4398 5.73438 30.5202 6.30783 30.7521 6.60916C31.1721 7.15703 31.7675 7.57159 32.3026 8.05372C31.5849 8.75682 30.9895 9.34305 30.438 9.88179C29.0829 8.53402 27.7169 7.17529 26.265 5.72891C27.127 4.88153 28.0821 4.01223 28.9478 3.06259C29.4719 2.48732 30.0253 2.30652 30.7923 2.31017C36.1961 2.34305 41.6018 2.32661 47.0075 2.32661H47.8805V12.8202L47.875 12.822Z" fill="#22B573"/>
<path id="Vector_4" d="M29.2072 17.4589H26.908V9.83618C27.7079 10.6397 28.4201 11.3483 29.1195 12.0679C29.1871 12.1373 29.2036 12.2779 29.2036 12.3856C29.209 14.0621 29.2072 15.7404 29.2072 17.4589Z" fill="#22B573"/>
<path id="Vector_5" d="M31.552 17.4479C31.552 15.7367 31.5483 14.0803 31.5593 12.4258C31.5593 12.2833 31.6287 12.108 31.7255 12.0039C32.3702 11.3099 33.0313 10.6306 33.8312 9.79596V17.4479H31.5502H31.552Z" fill="#22B573"/>
<path id="Vector_6" d="M36.2401 17.4626C36.2401 15.6181 36.2328 13.8265 36.2565 12.0331C36.2565 11.9071 36.4757 11.6825 36.6035 11.6752C37.2317 11.6368 37.8636 11.6588 38.5357 11.6588V17.4644H36.2419L36.2401 17.4626Z" fill="#22B573"/>
<path id="Vector_7" d="M40.9645 11.7007H43.2181V17.4406H40.9645V11.7007Z" fill="#22B573"/>
<path id="Vector_8" d="M46.2679 40.5628C46.5765 40.3491 46.8213 40.1866 47.0568 40.0131C47.5116 39.6752 47.9882 39.5255 48.5142 39.8414C49.042 40.161 49.1223 40.6596 49.0365 41.2129C48.9269 41.9105 48.8429 42.6136 48.6804 43.2985C48.5434 43.8774 48.6694 44.334 48.9963 44.8252C50.4701 47.0441 51.9092 49.2867 53.3592 51.5239C53.8907 52.3439 53.8815 52.7 53.3063 53.5054C51.5311 55.9891 49.7433 58.4636 47.9864 60.9601C47.5481 61.5829 47.0221 61.8404 46.2606 61.8294C43.9796 61.7984 41.6968 61.8184 39.414 61.8184C39.1675 61.8184 38.9209 61.8184 38.5721 61.8184C38.5721 62.2403 38.6598 62.6256 38.5502 62.9434C38.4114 63.3415 38.1868 63.7926 37.858 64.0209C37.4398 64.3113 36.9358 64.1359 36.5468 63.7798C36.4464 63.6867 36.3313 63.6027 36.2564 63.4913C35.2538 62.0175 33.8604 61.6943 32.1346 61.7801C29.3806 61.9171 26.6138 61.7983 23.8526 61.8276C23.0855 61.8367 22.5705 61.5609 22.1359 60.9418C20.3918 58.4636 18.6167 56.0092 16.8544 53.5437C16.2335 52.6744 16.2316 52.3731 16.827 51.4508C18.4341 48.9653 20.043 46.4798 21.6939 43.9267C21.3287 43.6546 20.9781 43.3807 20.6128 43.1286C20.1325 42.7963 19.7764 42.3945 19.9097 41.7681C20.0485 41.1106 20.5562 40.8805 21.1607 40.7856C21.7232 40.6979 22.2838 40.5299 22.8463 40.5189C23.7503 40.5007 24.2489 40.0441 24.7072 39.3081C26.1628 36.9687 27.7059 34.6841 29.1834 32.3574C29.5833 31.7274 30.0874 31.4735 30.8233 31.479C33.6522 31.5009 36.4829 31.5028 39.3136 31.479C40.0842 31.4717 40.5773 31.7657 40.9882 32.4159C42.5716 34.9178 44.1969 37.3924 45.8077 39.8761C45.9428 40.0843 46.0853 40.2888 46.2716 40.5646L46.2679 40.5628ZM38.563 54.8221C39.6204 54.8221 40.5974 54.6943 41.527 54.8495C43.3076 55.149 44.3905 54.4258 45.1155 52.8753C45.2763 52.532 45.2909 52.3329 45.0936 52.0298C44.4362 51.018 43.786 50.0008 43.1779 48.958C42.9113 48.4996 42.5898 48.2787 42.0566 48.2257C41.264 48.1472 40.4805 47.9755 39.6952 47.8385C39.1602 47.7454 38.7474 47.4897 38.6251 46.9272C38.5064 46.3775 38.7182 45.9502 39.1748 45.6324C39.6003 45.3347 40.0203 45.0279 40.4166 44.7449C40.4038 44.6335 40.413 44.5823 40.391 44.5476C39.6003 43.2693 38.815 41.9872 38.0096 40.7198C37.5366 39.9765 37.1823 38.9703 36.4957 38.6069C35.798 38.238 34.7571 38.4808 33.8695 38.5247C33.6102 38.5375 33.2687 38.7256 33.1281 38.9411C32.319 40.1793 31.6196 41.4941 30.7631 42.6958C30.0125 43.7496 29.6819 44.7923 30.1056 46.0525C30.2554 46.4999 30.2609 46.993 30.3485 47.4623C30.449 48.0047 30.3266 48.4704 29.8554 48.7809C29.3824 49.0932 28.9058 49.0219 28.451 48.7078C28.1424 48.4941 27.8283 48.2841 27.4923 48.054C26.9572 48.9197 26.4623 49.7086 25.9801 50.5085C25.5838 51.1678 24.888 51.8471 24.9081 52.4991C24.9282 53.1584 25.6386 53.8158 26.1007 54.4349C26.2468 54.6303 26.5609 54.8057 26.8001 54.8075C29.2418 54.8349 31.6853 54.833 34.127 54.8093C34.3863 54.8075 34.6968 54.6723 34.894 54.497C35.4711 53.9802 35.9569 53.3538 36.5705 52.8917C36.8828 52.6562 37.4581 52.5082 37.7923 52.6379C38.1283 52.7676 38.3931 53.2588 38.5411 53.6478C38.6616 53.9656 38.5648 54.3655 38.5648 54.8257L38.563 54.8221ZM24.0735 42.6721C24.6415 43.4154 24.4187 44.0436 23.9822 44.7047C22.3897 47.1172 20.8374 49.5552 19.2504 51.9713C19.013 52.3311 19.0112 52.5758 19.2669 52.9283C20.7425 54.9518 22.198 56.9898 23.6407 59.0371C23.8781 59.3749 24.1356 59.4973 24.5429 59.49C25.8194 59.4662 27.0978 59.4808 28.3743 59.4808H32.1912C31.3822 58.6718 31.426 57.9249 32.2076 57.1506C30.0508 57.1506 28.0657 57.1286 26.0824 57.1615C25.3592 57.1743 24.8826 56.9077 24.5064 56.305C23.8909 55.3207 23.2462 54.3546 22.576 53.4067C22.1322 52.7822 22.1487 52.227 22.5559 51.586C23.6791 49.82 24.7766 48.0358 25.856 46.2424C26.2431 45.5977 26.6632 45.0772 27.5982 45.2434C27.421 44.1824 27.2585 43.209 27.0868 42.1753C26.0605 42.3434 25.1017 42.5004 24.0735 42.6702V42.6721ZM27.1836 39.7428C28.5332 39.6204 28.7195 39.7044 29.2911 40.6614C30.0326 39.4634 30.7868 38.3 31.4808 37.102C31.8661 36.4354 32.3647 36.1305 33.1408 36.1542C34.3717 36.1926 35.6045 36.1907 36.8335 36.1542C37.6024 36.1305 38.1046 36.4135 38.5064 37.0783C39.8505 39.2953 41.2348 41.4905 42.6209 43.682C43.0811 44.4088 43.5687 45.1083 42.7853 45.9849C43.8518 46.162 44.7886 46.3154 45.7839 46.4816C45.9593 45.4352 46.1255 44.4399 46.3063 43.3606C45.4479 43.503 45.0407 43.0118 44.6645 42.4274C42.9295 39.7282 41.1891 37.0326 39.4231 34.3535C39.2642 34.1125 38.9191 33.8513 38.6543 33.8477C36.2601 33.8093 33.8659 33.8203 31.4717 33.8349C31.2726 33.8349 30.9841 33.9189 30.8891 34.065C29.6564 35.9186 28.451 37.7887 27.1818 39.7428H27.1836ZM45.9374 48.9799C46.5126 49.904 47.0477 50.7916 47.612 51.659C47.9955 52.2489 47.9846 52.7822 47.581 53.3629C46.8925 54.3527 46.2259 55.359 45.5758 56.3744C45.2233 56.9259 44.7686 57.1706 44.102 57.1615C42.0493 57.1341 39.9966 57.1378 37.9457 57.1597C37.2791 57.167 36.6746 57.1012 36.3313 56.5315C35.683 57.1414 35.0584 57.7277 34.4631 58.2883C35.073 58.9147 35.672 59.5283 36.313 60.1876C36.6874 59.5265 37.3047 59.4754 37.9694 59.479C40.5006 59.4918 43.0318 59.4735 45.563 59.4955C46.0031 59.4991 46.2643 59.3603 46.5144 59.0042C47.8093 57.1597 49.1278 55.3334 50.4391 53.4999C50.9346 52.8071 50.9461 52.0973 50.4738 51.3705C49.6702 50.1359 48.8667 48.9032 48.0321 47.6212C47.6339 48.8539 47.5444 48.9124 45.9374 48.9836V48.9799Z" fill="#22B573"/>
</g>
<defs>
<clipPath id="clip0_1_572">
<rect width="70.1278" height="70" fill="white"/>
</clipPath>
</defs>
</svg>
