<svg width="152" height="24" viewBox="0 0 152 24" fill="none" xmlns="http://www.w3.org/2000/svg">
<g id="Group 20">
<path id="Vector" d="M24 9.18621H14.84L12 0L9.16 9.18621H0L7.4 14.8552L4.6 24L12 18.331L19.4 24L16.56 14.8138L24 9.18621Z" fill="#FFCE31"/>
<path id="Vector_2" d="M56 9.18621H46.84L44 0L41.16 9.18621H32L39.4 14.8552L36.6 24L44 18.331L51.4 24L48.56 14.8138L56 9.18621Z" fill="#FFCE31"/>
<path id="Vector_3" d="M88 9.18621H78.84L76 0L73.16 9.18621H64L71.4 14.8552L68.6 24L76 18.331L83.4 24L80.56 14.8138L88 9.18621Z" fill="#FFCE31"/>
<path id="Vector_4" d="M120 9.18621H110.84L108 0L105.16 9.18621H96L103.4 14.8552L100.6 24L108 18.331L115.4 24L112.56 14.8138L120 9.18621Z" fill="#FFCE31"/>
<path id="Vector_5" d="M152 9.18621H142.84L140 0L137.16 9.18621H128L135.4 14.8552L132.6 24L140 18.331L147.4 24L144.56 14.8138L152 9.18621Z" fill="#FFCE31"/>
</g>
</svg>
