<svg width="186" height="24" viewBox="0 0 186 24" fill="none" xmlns="http://www.w3.org/2000/svg">
<g id="Group 31">
<path id="Vector" d="M24 12.0301C24 5.38947 18.624 0 12 0C5.376 0 0 5.38947 0 12.0301C0 17.8526 4.128 22.7008 9.6 23.8195V15.6391H7.2V12.0301H9.6V9.02256C9.6 6.70075 11.484 4.81203 13.8 4.81203H16.8V8.42105H14.4C13.74 8.42105 13.2 8.96241 13.2 9.62406V12.0301H16.8V15.6391H13.2V24C19.26 23.3985 24 18.2737 24 12.0301Z" fill="white"/>
<path id="Vector_2" d="M67.2338 0.00147642C68.1095 -0.00188373 68.9851 0.00691691 69.8606 0.0278756L70.0933 0.0362753C70.3621 0.045875 70.6273 0.0578745 70.9477 0.072274C72.2245 0.132272 73.0956 0.333865 73.86 0.630255C74.652 0.935045 75.3192 1.34783 75.9863 2.01501C76.5964 2.61452 77.0685 3.3397 77.3699 4.14014C77.6663 4.90451 77.8679 5.77688 77.9279 7.05364C77.9423 7.37283 77.9543 7.63922 77.9639 7.90801L77.9711 8.1408C77.9924 9.0158 78.0016 9.89106 77.9987 10.7663L77.9999 11.6615V13.2334C78.0028 14.1091 77.9936 14.9847 77.9723 15.8601L77.9651 16.0929C77.9555 16.3617 77.9435 16.6269 77.9291 16.9473C77.8691 18.2241 77.6651 19.0952 77.3699 19.8596C77.0695 20.6609 76.5972 21.3867 75.9863 21.9859C75.3863 22.5959 74.6608 23.068 73.86 23.3695C73.0956 23.6659 72.2245 23.8675 70.9477 23.9275C70.6273 23.9419 70.3621 23.9539 70.0933 23.9635L69.8606 23.9707C68.9852 23.992 68.1095 24.0012 67.2338 23.9983L66.3387 23.9995H64.7679C63.8923 24.0024 63.0166 23.9932 62.1412 23.9719L61.9084 23.9647C61.6236 23.9543 61.3388 23.9423 61.0541 23.9287C59.7773 23.8687 58.9061 23.6647 58.1406 23.3695C57.3398 23.0687 56.6145 22.5965 56.0154 21.9859C55.4047 21.3863 54.9321 20.6606 54.6307 19.8596C54.3343 19.0952 54.1327 18.2241 54.0727 16.9473C54.0593 16.6626 54.0473 16.3778 54.0367 16.0929L54.0307 15.8601C54.0086 14.9847 53.9986 14.1091 54.0007 13.2334V10.7663C53.9973 9.89106 54.0061 9.01581 54.0271 8.1408L54.0355 7.90801C54.0451 7.63922 54.0571 7.37283 54.0715 7.05364C54.1315 5.77568 54.3331 4.90571 54.6295 4.14014C54.9311 3.33931 55.4046 2.61432 56.0166 2.01621C56.6153 1.40513 57.3401 0.932132 58.1406 0.630255C58.9061 0.333865 59.7761 0.132272 61.0541 0.072274L61.9084 0.0362753L62.1412 0.0302756C63.0162 0.00816377 63.8915 -0.00183696 64.7667 0.000276552L67.2338 0.00147642ZM66.0003 6.00127C65.2053 5.99003 64.416 6.1369 63.6783 6.43334C62.9406 6.72978 62.2692 7.16989 61.703 7.72808C61.1369 8.28627 60.6873 8.95142 60.3805 9.68486C60.0737 10.4183 59.9156 11.2054 59.9156 12.0005C59.9156 12.7955 60.0737 13.5826 60.3805 14.3161C60.6873 15.0495 61.1369 15.7147 61.703 16.2729C62.2692 16.831 62.9406 17.2712 63.6783 17.5676C64.416 17.864 65.2053 18.0109 66.0003 17.9997C67.5915 17.9997 69.1176 17.3675 70.2428 16.2424C71.368 15.1172 72.0001 13.5911 72.0001 11.9999C72.0001 10.4086 71.368 8.88255 70.2428 7.75737C69.1176 6.63219 67.5915 6.00127 66.0003 6.00127ZM66.0003 8.40119C66.4785 8.39238 66.9536 8.47894 67.398 8.65583C67.8424 8.83272 68.247 9.09638 68.5883 9.43141C68.9296 9.76644 69.2008 10.1661 69.3859 10.6071C69.571 11.0481 69.6664 11.5216 69.6665 11.9999C69.6666 12.4781 69.5713 12.9516 69.3864 13.3927C69.2014 13.8337 68.9304 14.2335 68.5892 14.5687C68.248 14.9038 67.8434 15.1676 67.3991 15.3446C66.9548 15.5217 66.4797 15.6084 66.0015 15.5997C65.0467 15.5997 64.1311 15.2205 63.456 14.5454C62.7809 13.8703 62.4016 12.9546 62.4016 11.9999C62.4016 11.0451 62.7809 10.1295 63.456 9.45437C64.1311 8.77926 65.0467 8.39999 66.0015 8.39999L66.0003 8.40119ZM72.3001 4.20133C71.913 4.21683 71.5468 4.38151 71.2784 4.66088C71.01 4.94026 70.8601 5.31266 70.8601 5.70008C70.8601 6.08751 71.01 6.45991 71.2784 6.73928C71.5468 7.01866 71.913 7.18334 72.3001 7.19883C72.6979 7.19883 73.0794 7.0408 73.3607 6.75951C73.642 6.47821 73.8 6.09669 73.8 5.69888C73.8 5.30107 73.642 4.91955 73.3607 4.63826C73.0794 4.35696 72.6979 4.19893 72.3001 4.19893V4.20133Z" fill="white"/>
<path id="Vector_3" d="M174 0C180.635 0 186 5.36571 186 12C186 18.6343 180.635 24 174 24C167.366 24 162 18.6343 162 12C162 5.36571 167.366 0 174 0ZM171.806 18.3257C177.12 18.3257 180.035 13.92 180.035 10.0971V9.72C180.6 9.30857 181.098 8.79429 181.475 8.21143C180.96 8.43429 180.395 8.58857 179.812 8.67429C180.412 8.31429 180.875 7.74857 181.08 7.08C180.515 7.40571 179.898 7.64571 179.246 7.78286C178.715 7.21714 177.96 6.87429 177.138 6.87429C175.543 6.87429 174.24 8.17714 174.24 9.77143C174.24 9.99429 174.258 10.2171 174.326 10.4229C171.926 10.3029 169.783 9.15429 168.36 7.40571C168.12 7.83429 167.966 8.33143 167.966 8.86286C167.966 9.85714 168.48 10.7486 169.252 11.2629C168.772 11.2629 168.326 11.1257 167.949 10.9029V10.9371C167.949 12.3429 168.943 13.5086 170.263 13.7829C170.023 13.8514 169.766 13.8857 169.509 13.8857C169.32 13.8857 169.149 13.8686 168.96 13.8343C169.32 14.9829 170.4 15.8229 171.652 15.84C170.658 16.6114 169.406 17.0743 168.052 17.0743C167.812 17.0743 167.589 17.0743 167.366 17.04C168.635 17.8629 170.16 18.3429 171.789 18.3429" fill="white"/>
<g id="Group">
<path id="Vector_4" d="M126.375 0H113.625C110.519 0 108 2.5184 108 5.625V18.375C108 21.4816 110.519 24 113.625 24H126.375C129.482 24 132 21.4816 132 18.375V5.625C132 2.5184 129.482 0 126.375 0Z" fill="#333333"/>
<path id="Vector_5" d="M126.375 0H113.625C110.519 0 108 2.5184 108 5.625V18.375C108 21.4816 110.519 24 113.625 24H126.375C129.482 24 132 21.4816 132 18.375V5.625C132 2.5184 129.482 0 126.375 0Z" fill="white"/>
<path id="Vector_6" d="M125.318 20.408H128.062C128.161 20.408 128.256 20.3685 128.327 20.2982C128.397 20.2279 128.437 20.1325 128.437 20.0331L128.438 14.2354C128.438 11.2051 127.785 8.87588 124.244 8.87588C122.898 8.82581 121.628 9.51975 120.943 10.6785C120.94 10.6841 120.935 10.6885 120.929 10.691C120.923 10.6934 120.916 10.6938 120.91 10.6921C120.903 10.6904 120.898 10.6867 120.894 10.6815C120.89 10.6763 120.887 10.67 120.887 10.6634V9.53063C120.887 9.43117 120.848 9.33579 120.778 9.26546C120.707 9.19513 120.612 9.15563 120.512 9.15563H117.908C117.809 9.15563 117.713 9.19513 117.643 9.26546C117.573 9.33579 117.533 9.43117 117.533 9.53063V20.0325C117.533 20.132 117.573 20.2273 117.643 20.2977C117.713 20.368 117.809 20.4075 117.908 20.4075H120.652C120.752 20.4075 120.847 20.368 120.917 20.2977C120.988 20.2273 121.027 20.132 121.027 20.0325V14.8413C121.027 13.3734 121.306 11.9519 123.125 11.9519C124.919 11.9519 124.943 13.6315 124.943 14.9363V20.033C124.943 20.1324 124.982 20.2278 125.052 20.2981C125.123 20.3685 125.218 20.408 125.318 20.408ZM111.563 5.59003C111.563 6.70237 112.479 7.61756 113.591 7.61756C114.703 7.61747 115.618 6.70172 115.618 5.58966C115.618 4.47759 114.703 3.5625 113.591 3.5625C112.478 3.5625 111.563 4.47778 111.563 5.59003ZM112.215 20.408H114.963C115.062 20.408 115.158 20.3685 115.228 20.2981C115.298 20.2278 115.338 20.1324 115.338 20.033V9.53063C115.338 9.43117 115.298 9.33579 115.228 9.26546C115.158 9.19513 115.062 9.15563 114.963 9.15563H112.215C112.116 9.15563 112.021 9.19513 111.95 9.26546C111.88 9.33579 111.84 9.43117 111.84 9.53063V20.033C111.84 20.1324 111.88 20.2278 111.95 20.2981C112.021 20.3685 112.116 20.408 112.215 20.408Z" fill="#333333"/>
</g>
</g>
</svg>
