<svg width="96" height="92" viewBox="0 0 96 92" fill="none" xmlns="http://www.w3.org/2000/svg">
<path id="Vector" d="M94.4903 59.6043C95.1298 57.0911 95.3004 54.8975 95.2023 52.99C95.2023 52.99 95.2146 53.0331 95.2207 53.0547C95.212 52.7774 95.1662 52.5339 95.1421 52.2842C95.1027 51.899 95.0695 51.5353 95.0147 51.1777C94.966 50.8418 94.8649 50.5674 94.8008 50.2591C94.6203 49.5408 94.409 48.8779 94.1451 48.2766C94.0623 48.0669 93.9795 47.8572 93.9028 47.6691C93.7401 47.3421 93.5681 47.0644 93.3899 46.7652C93.264 46.5678 93.1596 46.3642 93.0336 46.1668C92.84 45.8953 92.6525 45.6453 92.465 45.3954C92.3236 45.2256 92.1761 45.0343 92.0407 44.8861C91.8378 44.6639 91.6348 44.4417 91.4103 44.2255C91.2534 44.0835 91.0965 43.9415 90.9397 43.7994C90.7212 43.6049 90.5028 43.4104 90.2689 43.2435C90.1182 43.1231 89.9459 43.0087 89.7951 42.8883C89.5612 42.7215 89.3273 42.5546 89.0996 42.4093C88.9611 42.332 88.8226 42.2548 88.684 42.1775C88.207 41.8931 87.7144 41.6364 87.2557 41.4168C87.1449 41.3549 87.0125 41.2992 86.9016 41.2373C86.6861 41.1352 86.4768 41.0548 86.2674 40.9743C86.1134 40.9247 85.9749 40.8474 85.8425 40.7917C85.6608 40.7266 85.4791 40.6615 85.3251 40.6119C85.1712 40.5623 85.0449 40.5282 84.9125 40.4725C84.7585 40.4229 84.6322 40.3888 84.506 40.3546C84.3797 40.3205 84.275 40.2802 84.1548 40.2677C84.0563 40.249 83.9516 40.2088 83.853 40.1901C83.7544 40.1714 83.6559 40.1528 83.5789 40.128C83.5296 40.1186 83.4803 40.1093 83.431 40.1C83.3325 40.0813 83.2832 40.072 83.2832 40.072C92.7751 29.8011 89.8226 26.7912 84.7364 19.6297C84.3092 19.028 83.882 18.4264 83.4365 17.76C80.9752 14.0977 80.2277 11.7915 79.917 9.87425C79.7465 8.78004 79.6836 7.81854 79.5315 6.78908C79.5009 6.68117 79.4858 6.54555 79.4767 6.43152C79.4339 6.28045 79.4187 6.14482 79.3975 5.98763C79.3546 5.83656 79.3056 5.66391 79.2844 5.50672C79.2476 5.37723 79.2048 5.22622 79.1681 5.09674C79.113 4.90251 79.0579 4.70823 78.9812 4.52013C78.9444 4.39064 78.9016 4.23956 78.8433 4.1162C78.7544 3.88493 78.6439 3.65979 78.5272 3.41306C78.4905 3.28357 78.4106 3.16635 78.3523 3.04298C78.3462 3.0214 78.3339 2.97822 78.3278 2.95664C78.159 2.60813 77.9625 2.24413 77.7166 1.87082C75.4129 -1.976 69.1264 3.07179 64.6994 12.209C64.2601 13.1264 63.8331 14.087 63.4337 15.0631C62.6411 17.0367 61.9406 19.1708 61.3848 21.4037C61.1208 22.528 60.8628 23.6738 60.6758 24.8228C60.5853 25.408 60.4948 25.9933 60.4104 26.6002C60.1728 28.3931 60.0554 30.1986 60.0488 32.0659L60.061 32.109C60.0656 32.9472 60.0579 33.7421 60.0441 34.5155C60.0499 34.7004 60.0342 34.8915 60.04 35.0764C60.0201 35.8282 60.0095 36.5307 59.9928 37.2116C59.9802 37.3318 59.9893 37.4459 59.9767 37.566C59.9571 38.1545 59.9314 38.7215 59.8995 39.2668C59.887 39.387 59.8805 39.5287 59.8741 39.6704C59.8545 40.2589 59.8011 40.8103 59.7692 41.3557C59.7567 41.4758 59.7441 41.596 59.7532 41.7101C59.7245 42.1845 59.6897 42.6374 59.6427 43.0472C59.6611 43.1119 59.6302 43.1673 59.627 43.2382C59.5922 43.691 59.5513 44.1224 59.4982 44.5105C59.4795 44.6091 59.4824 44.7015 59.4638 44.8001C59.4107 45.1882 59.373 45.5487 59.3292 45.8876C59.3415 45.9307 59.326 45.9584 59.3166 46.0077C59.2667 46.325 59.2262 46.593 59.1856 46.861C59.1824 46.9319 59.1576 47.0089 59.1544 47.0797C59.1138 47.3477 59.0455 47.6003 58.9927 47.8252C58.9834 47.8744 58.9741 47.9237 58.9647 47.973C58.9274 48.1701 58.8623 48.3518 58.8188 48.5274C58.825 48.549 58.794 48.6043 58.8002 48.6259C58.7351 48.8076 58.6916 48.9831 58.6359 49.1155C58.642 49.1371 58.6111 49.1925 58.5957 49.2202C58.5399 49.3526 58.4842 49.485 58.4285 49.6174C58.3666 49.7282 58.3264 49.833 58.2584 49.9222C58.2584 49.9222 58.243 49.9499 58.2275 49.9776C58.1811 50.0607 58.1287 50.1222 58.0761 50.1838C58.0236 50.2453 57.9866 50.2791 57.928 50.3191C57.8909 50.3529 57.8323 50.3928 57.7891 50.4051C57.6442 50.4695 57.5456 50.4509 57.5179 50.4354C57.8406 49.2712 57.6859 47.986 56.9391 46.9153C56.3122 46.0206 55.4073 45.4611 54.4371 45.2467C55.4728 41.8283 56.7257 35.9699 55.2317 30.8674C55.1337 30.5221 54.7797 30.3427 54.4344 30.4407C54.0891 30.5386 53.9097 30.8927 54.0076 31.238C55.4559 36.0969 54.126 41.9305 53.1276 45.1518C52.4219 45.2121 51.7435 45.4511 51.1418 45.8783C50.4013 46.3915 49.8853 47.1208 49.6003 47.9245C46.3249 47.8044 40.0708 47.1301 35.8183 43.976C35.529 43.7782 35.1437 43.8175 34.9244 44.1129C34.7266 44.4022 34.7659 44.7875 35.0613 45.0068C39.5539 48.3494 45.9188 49.0854 49.3852 49.2214C49.3743 50.0872 49.5976 50.9566 50.1385 51.7126C50.8853 52.7832 52.0305 53.3678 53.2474 53.4656C53.2597 53.5087 53.278 53.5734 53.2687 53.6227C53.2687 53.6227 53.2687 53.6227 53.2471 53.6288C53.1824 53.6472 53.1238 53.6872 53.0435 53.7333C53.022 53.7394 53.0004 53.7455 52.9572 53.7578C52.8925 53.7761 52.8062 53.8006 52.6982 53.8312C52.6551 53.8435 52.6119 53.8557 52.5472 53.8741C52.4608 53.8986 52.3407 53.886 52.2051 53.9012C52.1403 53.9195 52.091 53.9102 52.0202 53.9069C51.8568 53.9066 51.6935 53.9064 51.5025 53.8906C51.4594 53.9029 51.4101 53.8935 51.3608 53.8841C51.0989 53.8652 50.8093 53.8307 50.4981 53.8024C50.4273 53.7992 50.3503 53.7744 50.2794 53.7712C50.0114 53.7306 49.7434 53.6901 49.4261 53.6402C49.3059 53.6276 49.1581 53.5996 49.0318 53.5655C48.7361 53.5095 48.4127 53.438 48.0677 53.3726C47.9198 53.3446 47.772 53.3166 47.618 53.267C47.1683 53.1614 46.6909 53.0403 46.1642 52.9099C46.1149 52.9006 46.0595 52.8696 45.9887 52.8664C45.385 52.7112 44.7475 52.519 44.0607 52.3174C43.8852 52.2739 43.6819 52.215 43.5002 52.15C42.9674 51.998 42.4069 51.8305 41.8126 51.626C41.5539 51.5361 41.2736 51.4524 41.015 51.3626C40.4268 51.1797 39.8047 50.9597 39.1611 50.7459C38.8809 50.6622 38.6222 50.5723 38.3358 50.467C37.3842 50.154 36.3988 49.804 35.3303 49.4075C30.1108 47.5304 24.7352 46.7468 19.8141 46.7437C18.1809 46.7406 16.5938 46.8177 15.0744 46.9689C14.1251 47.075 13.2035 47.1965 12.3096 47.3335C11.7733 47.4157 11.2647 47.5133 10.756 47.611C3.12023 49.2174 -1.51775 52.6783 0.88325 55.6348C1.19992 56.0113 1.48276 56.3508 1.77495 56.641C1.87643 56.7521 1.96566 56.8201 2.06713 56.9312C2.25784 57.1103 2.42697 57.2955 2.61156 57.453C2.73462 57.558 2.82998 57.6475 2.94691 57.731C3.09768 57.8514 3.25456 57.9934 3.3992 58.0923C3.51614 58.1757 3.63308 58.2591 3.75001 58.3425C3.89465 58.4414 4.01159 58.5248 4.15011 58.6021C4.28863 58.6794 4.40556 58.7628 4.54408 58.8401C4.65489 58.902 4.76571 58.9638 4.8704 59.0041C5.7785 59.4927 6.67759 59.8672 7.65334 60.4299C9.34939 61.3945 11.2632 62.8802 13.8572 66.4348C14.3182 67.0735 14.7515 67.6968 15.151 68.283C20.1416 75.5183 21.9647 79.3148 34.8708 73.9282C34.8708 73.9282 34.8831 73.9714 34.8583 74.0484C34.8335 74.1254 34.8209 74.2455 34.8145 74.3873C34.8145 74.3873 34.8145 74.3873 34.8206 74.4089C34.6423 75.8352 34.3385 80.0253 36.479 83.8718C38.2048 86.9965 41.5457 89.8962 47.8485 90.9065C48.3629 90.9937 48.8928 91.0533 49.4443 91.1067C49.9958 91.1601 50.5411 91.192 51.0527 91.1868C51.0527 91.1868 51.0527 91.1868 51.0742 91.1806C51.5858 91.1754 52.0635 91.1331 52.5135 91.0754C65.1415 89.312 61.7115 66.7808 61.0532 62.9802L69.7642 74.4531C70.1792 75.0116 70.9616 75.1395 71.5201 74.7245C72.0848 74.3312 72.2342 73.5426 71.8624 72.9718L63.7018 60.48C63.7018 60.48 88.4942 75.6224 94.0961 61.0919C94.0961 61.0919 94.1116 61.0642 94.127 61.0365C94.319 60.5623 94.4771 60.0511 94.6014 59.5029L94.4903 59.6043Z" fill="white"/>
</svg>
