<svg width="141" height="128" viewBox="0 0 141 128" fill="none" xmlns="http://www.w3.org/2000/svg">
<path id="Vector" d="M77.3592 127.28C81.1265 126.266 84.1047 124.896 86.5229 123.348C86.5229 123.374 86.4974 123.399 86.4719 123.425C86.8028 123.196 87.0829 122.968 87.4138 122.74C87.872 122.41 88.3556 122.106 88.7883 121.75C89.1701 121.446 89.501 121.116 89.8319 120.787C90.621 120.051 91.3338 119.265 91.9447 118.478C92.1484 118.225 92.3774 117.971 92.5556 117.717C92.8611 117.286 93.0901 116.83 93.3447 116.398C93.5229 116.094 93.7011 115.79 93.8538 115.485C94.0829 115.054 94.261 114.597 94.4392 114.166C94.5665 113.862 94.6938 113.532 94.7956 113.228C94.9484 112.796 95.0756 112.365 95.2029 111.909C95.2793 111.604 95.3556 111.3 95.432 110.97C95.5338 110.539 95.6102 110.108 95.6866 109.676C95.7375 109.372 95.7629 109.093 95.7883 108.789C95.8392 108.357 95.8902 107.952 95.9156 107.546C95.9156 107.292 95.9156 107.089 95.9156 106.836C95.9156 105.998 95.9156 105.187 95.8647 104.426C95.8647 104.223 95.8647 104.02 95.8138 103.842C95.7883 103.487 95.7375 103.158 95.6866 102.853C95.6611 102.625 95.6356 102.397 95.5847 102.168C95.5338 101.864 95.4829 101.61 95.432 101.357C95.3811 101.128 95.3556 100.925 95.3047 100.722C95.2538 100.494 95.2029 100.291 95.152 100.088C95.101 99.8854 95.0502 99.7332 95.0247 99.5556C94.9738 99.4035 94.9484 99.2513 94.8975 99.1244C94.8466 98.9722 94.8211 98.8454 94.7701 98.7439C94.7447 98.6678 94.7192 98.5918 94.6938 98.541C94.6429 98.4142 94.6174 98.3381 94.6174 98.3381C115.007 103.132 116.763 97.0952 122.388 85.2241C122.847 84.2349 123.33 83.2203 123.865 82.1803C126.817 76.2955 129.287 73.6321 131.577 71.8058C132.876 70.7658 134.098 69.9795 135.319 69.0409C135.472 68.9395 135.599 68.8127 135.752 68.7112C135.93 68.5844 136.083 68.4322 136.261 68.28C136.439 68.1278 136.618 67.9502 136.796 67.7727C136.948 67.6205 137.101 67.4683 137.254 67.3161C137.458 67.1132 137.661 66.8849 137.865 66.6566C138.018 66.5044 138.145 66.3268 138.298 66.1747C138.527 65.8956 138.756 65.5912 138.985 65.2615C139.112 65.1093 139.214 64.9571 139.341 64.7795C139.367 64.7288 139.392 64.7035 139.418 64.6781C139.748 64.1961 140.079 63.6635 140.41 63.0801C143.745 57.2714 132.519 52.7817 117.323 53.7202C115.796 53.8217 114.243 53.9738 112.665 54.1768C109.483 54.5826 106.199 55.2421 102.865 56.1806C101.21 56.6372 99.5301 57.1699 97.8501 57.7787C97.0101 58.0831 96.1702 58.3874 95.3556 58.7426C92.8611 59.7572 90.392 60.924 87.9483 62.2684C87.9483 62.2684 87.8974 62.2937 87.872 62.3191C86.7774 62.9279 85.7338 63.5113 84.7156 64.0439C84.4611 64.1708 84.2065 64.323 83.9774 64.4498C82.9847 64.9825 82.0428 65.4898 81.1519 65.9464C80.9992 66.0225 80.8465 66.0986 80.6937 66.1747C79.9047 66.5805 79.141 66.961 78.4028 67.3415C78.2247 67.4176 78.0465 67.519 77.8683 67.5951C77.0792 68.001 76.3156 68.3561 75.6028 68.6858C75.4501 68.7619 75.2719 68.838 75.1192 68.9141C74.4828 69.2185 73.8719 69.4975 73.2864 69.7512C73.2101 69.8019 73.1083 69.8273 73.0319 69.878C72.3955 70.157 71.8356 70.4107 71.2756 70.639C71.1483 70.6897 70.9956 70.7658 70.8683 70.8165C70.3338 71.0448 69.8247 71.2477 69.341 71.4253C69.2901 71.4253 69.2392 71.476 69.1883 71.476C68.7556 71.6282 68.3483 71.7804 67.9664 71.9073C67.8646 71.9326 67.7628 71.9833 67.661 72.0087C67.2792 72.1355 66.8974 72.2624 66.5665 72.3638C66.4901 72.3638 66.4137 72.4146 66.3374 72.4399C66.0319 72.516 65.7774 72.5921 65.5228 72.6682C65.4719 72.6682 65.421 72.6936 65.3701 72.7189C65.0901 72.795 64.8355 72.8458 64.6064 72.8711C64.5555 72.8711 64.5046 72.8711 64.4537 72.8965C64.2246 72.9219 64.021 72.9472 63.8428 72.9726C63.6392 72.9726 63.4864 72.9726 63.3337 72.9726C63.3082 72.9726 63.2828 72.9726 63.2573 72.9726C63.1046 72.9726 62.9773 72.9726 62.8755 72.9219C62.7737 72.9219 62.6719 72.8711 62.5956 72.8458C62.5192 72.8204 62.4428 72.7697 62.3919 72.7443C62.1882 72.6175 62.1628 72.4653 62.1628 72.4146C63.9192 71.9833 65.4719 70.8419 66.3119 69.0917C67.0246 67.6205 67.0756 66.0478 66.6428 64.602C71.861 63.4352 80.4392 60.7972 85.9884 55.0899C86.3447 54.7094 86.3447 54.1007 85.9884 53.7456C85.6065 53.3651 84.9956 53.3904 84.6393 53.7456C79.3447 59.1991 70.741 61.7357 65.8028 62.801C65.2173 61.9386 64.4028 61.2284 63.41 60.7464C62.1882 60.163 60.8391 60.0108 59.5919 60.2391C57.3518 55.8763 53.61 47.252 54.6028 39.3887C54.6791 38.856 54.2973 38.3994 53.7628 38.3233C53.2283 38.2472 52.77 38.6277 52.6937 39.1604C51.65 47.4549 55.3664 56.2567 57.7337 60.8733C56.5883 61.482 55.621 62.4206 55.0355 63.6635C54.1955 65.4137 54.2719 67.3415 55.0355 68.9902C54.9592 69.0156 54.9082 69.0917 54.8319 69.1171C54.8319 69.1171 54.8064 69.1171 54.781 69.1171C54.7046 69.0663 54.6027 68.9902 54.5009 68.9141C54.4755 68.9141 54.45 68.8634 54.4246 68.838C54.3482 68.7619 54.2464 68.6605 54.1446 68.559C54.0937 68.5083 54.0427 68.4322 54.0173 68.3814C53.9155 68.2546 53.8391 68.1278 53.7373 67.9756C53.6864 67.8995 53.6355 67.8234 53.5846 67.7473C53.4573 67.5444 53.3301 67.3161 53.2028 67.0624C53.1773 66.9863 53.1264 66.9356 53.101 66.8595C52.9228 66.5044 52.7701 66.1239 52.5664 65.6673C52.5155 65.5659 52.49 65.439 52.4391 65.3376C52.2864 64.9825 52.1337 64.5766 51.9809 64.1454C51.93 63.9678 51.8537 63.7649 51.7773 63.5874C51.6246 63.1562 51.4719 62.6996 51.3446 62.1923C51.2682 61.9893 51.2173 61.7611 51.141 61.5328C50.9373 60.8733 50.7337 60.163 50.53 59.3767C50.53 59.2752 50.4791 59.2245 50.4537 59.123C50.2246 58.2352 49.97 57.246 49.7409 56.206C49.69 55.927 49.6137 55.648 49.5373 55.3689C49.3591 54.5572 49.1555 53.7202 48.9773 52.807C48.901 52.4012 48.7991 51.9953 48.7228 51.5641C48.5446 50.651 48.3409 49.6871 48.1628 48.6978C48.0864 48.2666 48.01 47.8608 47.9082 47.4042C47.6282 45.933 47.3482 44.411 47.0682 42.7369C45.6937 34.5439 42.741 27.0103 39.1264 20.5928C37.93 18.4621 36.6572 16.4583 35.3336 14.5812C34.5191 13.4144 33.6791 12.3237 32.8136 11.2583C32.3045 10.6242 31.7954 10.0408 31.2863 9.45738C23.5736 0.680919 15.6317 -2.79415 13.5445 2.50724C13.2899 3.1921 13.0609 3.80088 12.8827 4.40965C12.8318 4.61257 12.7809 4.79013 12.73 4.99305C12.6282 5.37354 12.5263 5.75402 12.4499 6.10914C12.399 6.33743 12.3736 6.54035 12.3227 6.74327C12.2718 7.04766 12.2208 7.32668 12.1954 7.6057C12.1699 7.83399 12.1445 8.03691 12.119 8.2652C12.119 8.51886 12.0936 8.74715 12.0681 9.0008C12.0681 9.22909 12.0681 9.45738 12.0681 9.68567C12.0681 9.86323 12.0681 10.0408 12.0681 10.2183C12.0936 11.7656 12.2463 13.2115 12.2463 14.8602C12.2463 17.7773 11.7118 21.3538 8.96267 27.3401C8.47903 28.4054 7.96992 29.42 7.51173 30.4093C1.75899 42.2042 -1.88097 47.3534 14.6391 60.1884C14.6391 60.1884 14.5626 60.1884 14.4863 60.2391C14.4863 60.2391 14.4863 60.2391 14.4609 60.2391C14.3591 60.2899 14.1809 60.3406 13.9772 60.4167C13.9772 60.4167 13.9772 60.4167 13.9263 60.4167C11.9408 61.203 6.23904 63.8918 2.77721 69.5229C-0.0227946 74.0633 -1.37191 80.5315 1.96265 89.4855C2.24265 90.2211 2.52261 90.9567 2.87898 91.7177C3.20989 92.4787 3.59176 93.1889 3.97358 93.8738C3.97358 93.8738 3.97358 93.8738 3.97358 93.8991C4.3554 94.5586 4.76268 95.1421 5.16995 95.7001C16.7773 110.843 43.6573 89.866 48.1119 86.2134L39.5337 105.973C39.1264 106.912 39.5337 108.028 40.4755 108.484C41.4173 108.941 42.5373 108.56 43.021 107.622L53.33 87.8368C53.33 87.8368 51.8028 131.186 74.8901 127.813C74.9156 127.813 74.941 127.813 74.9665 127.813C75.7301 127.686 76.5192 127.534 77.3337 127.306L77.3592 127.28Z" fill="#55B76B"/>
</svg>
